<svg xmlns="http://www.w3.org/2000/svg" viewBox="0 0 1000 350" width="1000" height="350" role="img" aria-labelledby="t d"><title id="t">Cerebro</title><desc id="d">The Cerebro wordmark above a promotion rail: a flag laid through dev and qa, live in both, with the frontier at qa and prod still ahead.</desc><defs>
<filter id="glow" x="-150%" y="-150%" width="400%" height="400%">
<feGaussianBlur stdDeviation="5"/>
</filter>
<pattern id="hatch" width="4" height="4" patternUnits="userSpaceOnUse" patternTransform="rotate(-45)">
<rect width="1" height="4" fill="#8C99A8" opacity="0.5"/>
</pattern>
<linearGradient id="pipeline" x1="0" y1="0" x2="1" y2="0">
<stop offset="0" stop-color="#5BE0D0"/><stop offset="0.5" stop-color="#F5B655"/>
<stop offset="1" stop-color="#FF7F6E"/>
</linearGradient>
</defs><rect width="1000" height="350" fill="#07090C"/><path d="M0 46H1000M0 92H1000M0 138H1000M0 184H1000M0 230H1000M0 276H1000M0 322H1000M46 0V350M92 0V350M138 0V350M184 0V350M230 0V350M276 0V350M322 0V350M368 0V350M414 0V350M460 0V350M506 0V350M552 0V350M598 0V350M644 0V350M690 0V350M736 0V350M782 0V350M828 0V350M874 0V350M920 0V350M966 0V350" stroke="#EDF1F6" stroke-width="1" opacity="0.03"/><path d="M30 42V30H42M970 308V320H958" fill="none" stroke="#FF7F6E" stroke-width="2" opacity="0.85"/><path d="M421.4 66H420.2V58.3H425V59.4H421.4V61.6H424.6V62.7H421.4ZM433.1 66H428.2V58.3H433.1V59.4H429.4V61.6H432.8V62.7H429.4V64.9H433.1ZM442.6 66H441.3L440.6 63.9H437.7L437 66H435.8L438.4 58.3H439.9ZM440.3 62.9 439.5 60.6 439.2 59.5H439.1L438.8 60.6L438 62.9ZM449.9 59.4H447.6V66H446.4V59.4H444.1V58.3H449.9ZM452.8 58.3H454.1V63.1Q454.1 63.7 454.2 64.1Q454.4 64.6 454.8 64.8Q455.1 65 455.7 65Q456.3 65 456.7 64.8Q457 64.6 457.2 64.1Q457.4 63.7 457.4 63.1V58.3H458.6V62.9Q458.6 64 458.3 64.7Q458 65.4 457.4 65.8Q456.8 66.1 455.7 66.1Q454.6 66.1 454 65.8Q453.4 65.4 453.1 64.7Q452.8 64 452.8 62.9ZM463.4 62.9V66H462.2V58.3H465.5Q466.2 58.3 466.7 58.6Q467.2 58.9 467.4 59.4Q467.7 59.9 467.7 60.6Q467.7 61.4 467.3 62Q467 62.6 466.2 62.8L467.9 66H466.5L465 62.9ZM463.4 61.9H465.4Q465.7 61.9 465.9 61.7Q466.2 61.6 466.3 61.4Q466.4 61.2 466.4 60.9V60.4Q466.4 60 466.3 59.8Q466.2 59.6 465.9 59.5Q465.7 59.4 465.4 59.4H463.4ZM476.1 66H471.2V58.3H476.1V59.4H472.4V61.6H475.7V62.7H472.4V64.9H476.1ZM485 66H483.8V58.3H488.6V59.4H485V61.6H488.2V62.7H485ZM496.2 66H491.8V58.3H493.1V64.9H496.2ZM505.5 66H504.2L503.5 63.9H500.7L500 66H498.7L501.3 58.3H502.9ZM503.2 62.9 502.5 60.6 502.1 59.5H502.1L501.7 60.6L500.9 62.9ZM513.1 66V64.8H513.1Q513 65.4 512.4 65.8Q511.9 66.1 511 66.1Q510.1 66.1 509.4 65.7Q508.7 65.2 508.3 64.3Q507.9 63.5 507.9 62.2Q507.9 60.9 508.3 60Q508.7 59.1 509.5 58.7Q510.2 58.2 511.2 58.2Q512.2 58.2 513 58.7Q513.7 59.1 514.1 59.9L513.1 60.5Q512.8 60 512.4 59.6Q511.9 59.3 511.2 59.3Q510.6 59.3 510.2 59.6Q509.7 59.8 509.4 60.3Q509.2 60.8 509.2 61.5V62.8Q509.2 63.5 509.4 64Q509.7 64.5 510.2 64.8Q510.6 65 511.3 65Q511.8 65 512.2 64.9Q512.6 64.7 512.8 64.4Q513 64.1 513 63.6V63H511.5V61.9H514.2V66ZM525 66.1Q524 66.1 523.2 65.7Q522.5 65.2 522.1 64.4Q521.7 63.5 521.7 62.2Q521.7 60.9 522.1 60Q522.5 59.1 523.2 58.7Q524 58.2 525 58.2Q526 58.2 526.6 58.6Q527.3 59.1 527.7 59.9L526.7 60.5Q526.5 60 526 59.6Q525.6 59.3 525 59.3Q524.1 59.3 523.6 59.9Q523.1 60.5 523.1 61.6V62.8Q523.1 63.8 523.6 64.4Q524.1 65 525 65Q525.6 65 526.1 64.7Q526.5 64.3 526.7 63.7L527.7 64.3Q527.4 65.2 526.7 65.7Q526 66.1 525 66.1ZM533.6 66.1Q532.6 66.1 531.9 65.7Q531.1 65.2 530.7 64.3Q530.3 63.4 530.3 62.2Q530.3 60.9 530.7 60Q531.1 59.1 531.9 58.6Q532.6 58.2 533.6 58.2Q534.6 58.2 535.4 58.6Q536.1 59.1 536.5 60Q536.9 60.9 536.9 62.2Q536.9 63.4 536.5 64.3Q536.1 65.2 535.4 65.7Q534.6 66.1 533.6 66.1ZM533.6 65Q534.2 65 534.7 64.7Q535.1 64.5 535.4 64Q535.6 63.5 535.6 62.8V61.6Q535.6 60.9 535.4 60.3Q535.1 59.8 534.7 59.6Q534.2 59.3 533.6 59.3Q533 59.3 532.6 59.6Q532.1 59.8 531.9 60.3Q531.7 60.9 531.7 61.6V62.8Q531.7 63.5 531.9 64Q532.1 64.5 532.6 64.7Q533 65 533.6 65ZM544.8 66 542.3 61.8 541.5 60.1H541.4V61.8V66H540.3V58.3H541.7L544.1 62.6L545 64.2H545V62.5V58.3H546.2V66ZM552.2 66.1Q551.2 66.1 550.5 65.8Q549.8 65.4 549.4 64.8L550.2 64Q550.6 64.5 551.1 64.8Q551.6 65 552.2 65Q553 65 553.3 64.7Q553.7 64.4 553.7 63.8Q553.7 63.5 553.6 63.3Q553.5 63.1 553.2 62.9Q553 62.8 552.5 62.7L551.8 62.6Q551.1 62.4 550.6 62.2Q550.1 61.9 549.8 61.4Q549.6 61 549.6 60.4Q549.6 59.7 549.9 59.2Q550.3 58.7 550.9 58.5Q551.5 58.2 552.3 58.2Q553.2 58.2 553.8 58.5Q554.4 58.8 554.9 59.4L554 60.1Q553.7 59.8 553.3 59.5Q552.8 59.3 552.2 59.3Q551.6 59.3 551.2 59.6Q550.8 59.8 550.8 60.3Q550.8 60.6 551 60.9Q551.1 61.1 551.4 61.2Q551.6 61.3 552 61.4L552.7 61.5Q553.5 61.7 554 62Q554.5 62.3 554.7 62.7Q555 63.1 555 63.7Q555 64.5 554.6 65Q554.3 65.5 553.7 65.8Q553 66.1 552.2 66.1ZM561.2 66.1Q560.2 66.1 559.4 65.7Q558.7 65.2 558.3 64.3Q557.9 63.4 557.9 62.2Q557.9 60.9 558.3 60Q558.7 59.1 559.4 58.6Q560.2 58.2 561.2 58.2Q562.2 58.2 562.9 58.6Q563.7 59.1 564.1 60Q564.5 60.9 564.5 62.2Q564.5 63.4 564.1 64.3Q563.7 65.2 562.9 65.7Q562.2 66.1 561.2 66.1ZM561.2 65Q561.8 65 562.2 64.7Q562.7 64.5 562.9 64Q563.2 63.5 563.2 62.8V61.6Q563.2 60.9 562.9 60.3Q562.7 59.8 562.2 59.6Q561.8 59.3 561.2 59.3Q560.6 59.3 560.1 59.6Q559.7 59.8 559.4 60.3Q559.2 60.9 559.2 61.6V62.8Q559.2 63.5 559.4 64Q559.7 64.5 560.1 64.7Q560.6 65 561.2 65ZM572.2 66H567.8V58.3H569V64.9H572.2ZM580.1 66H575.2V58.3H580.1V59.4H576.4V61.6H579.8V62.7H576.4V64.9H580.1Z" fill="#8C99A8"/><path d="M259.3 128.5V88.7L268.8 79.2H296.3L305.7 88.5V96.3H295.9V92L291.5 87.6H273.8L269 92.3V124.9L273.8 129.6H291.5L295.9 125.2V120.9H305.7V128.7L296.3 138H268.8ZM333 79.2H374V87.5H342.7V104.3H371.5V112.5H342.7V129.7H374V138H333ZM446.4 119V138H436.6V121.4L430.6 114.7H411.4V138H401.7V79.2H437.5L446 87.9V105.9L439.9 112ZM411.4 106.7H433.1L436.5 103.3V90.8L433.1 87.4H411.4ZM476.2 79.2H517.2V87.5H485.9V104.3H514.7V112.5H485.9V129.7H517.2V138H476.2ZM544.9 79.2H580.5L588.7 87.3V103.8L585.1 107.4L591.3 113.6V129.2L582.4 138H544.9ZM575.6 104.5 579.1 101V90.8L575.7 87.4H554.4V104.5ZM577.7 129.8 581.7 125.7V116.3L577.7 112.4H554.4V129.8ZM663.7 119V138H653.9V121.4L647.9 114.7H628.7V138H619V79.2H654.8L663.3 87.9V105.9L657.2 112ZM628.7 106.7H650.4L653.8 103.3V90.8L650.4 87.4H628.7ZM692.7 128.5V88.7L702.1 79.2H731.2L740.7 88.7V128.5L731.2 138H702.1ZM726.2 129.6 731 124.9V92.3L726.2 87.6H707.2L702.4 92.3V124.9L707.2 129.6Z" fill="#EDF1F6"/><path d="M247.2 180.2Q245.7 180.2 244.6 179.6Q243.5 179 242.8 178L243.9 177.1Q244.6 178 245.4 178.4Q246.2 178.9 247.3 178.9Q248.6 178.9 249.4 178.2Q250.1 177.6 250.1 176.5Q250.1 175.9 249.8 175.5Q249.6 175.1 249.1 174.8Q248.6 174.5 247.7 174.3L246.7 174.1Q245.6 173.8 244.8 173.4Q244 173 243.6 172.3Q243.2 171.6 243.2 170.7Q243.2 169.5 243.7 168.8Q244.2 168 245.2 167.6Q246.1 167.2 247.3 167.2Q248.7 167.2 249.8 167.7Q250.8 168.3 251.5 169.3L250.3 170.1Q249.8 169.4 249.1 169Q248.4 168.6 247.3 168.6Q246 168.6 245.4 169.1Q244.7 169.6 244.7 170.6Q244.7 171.2 244.9 171.6Q245.2 172 245.7 172.3Q246.2 172.5 247 172.7L248 172.9Q249.3 173.2 250 173.7Q250.8 174.1 251.2 174.8Q251.6 175.5 251.6 176.4Q251.6 177.6 251 178.4Q250.5 179.3 249.5 179.7Q248.6 180.2 247.2 180.2ZM257.5 180.2Q256.3 180.2 255.3 179.6Q254.4 179 253.9 177.9Q253.3 176.8 253.3 175.4Q253.3 173.9 253.9 172.8Q254.4 171.7 255.3 171.1Q256.3 170.5 257.5 170.5Q258.8 170.5 259.7 171.1Q260.6 171.7 261 172.7Q261.5 173.7 261.5 175V175.7H254.8V176.1Q254.8 177.4 255.6 178.2Q256.3 179 257.6 179Q258.5 179 259.1 178.5Q259.8 178.1 260.2 177.4L261.2 178.1Q260.7 179 259.8 179.6Q258.8 180.2 257.5 180.2ZM257.5 171.7Q256.7 171.7 256.1 172.1Q255.5 172.4 255.2 173.1Q254.8 173.7 254.8 174.5V174.6H260V174.4Q260 173.6 259.7 173Q259.4 172.4 258.8 172Q258.3 171.7 257.5 171.7ZM266.7 180H265.4Q264.7 180 264.3 179.6Q263.9 179.2 263.9 178.5V166.7H265.3V178.7H266.7ZM269.3 180V172H267.8V170.7H269.3V168.8Q269.3 167.9 269.8 167.3Q270.3 166.7 271.3 166.7H272.7V167.9H270.7V170.7H272.7V172H270.7V180ZM279 175.3H274.3V173.8H279ZM281.8 180V166.7H283.3V172.2H283.3Q283.7 171.4 284.3 171Q284.9 170.5 286 170.5Q287.4 170.5 288.2 171.4Q289.1 172.3 289.1 174V180H287.6V174.3Q287.6 173.1 287.1 172.4Q286.6 171.8 285.5 171.8Q284.9 171.8 284.4 172Q283.9 172.2 283.6 172.6Q283.3 173 283.3 173.6V180ZM295.5 180.2Q294.3 180.2 293.4 179.6Q292.4 179 291.9 177.9Q291.4 176.8 291.4 175.4Q291.4 173.9 291.9 172.8Q292.4 171.7 293.4 171.1Q294.3 170.5 295.5 170.5Q296.8 170.5 297.7 171.1Q298.7 171.7 299.2 172.8Q299.7 173.9 299.7 175.4Q299.7 176.8 299.2 177.9Q298.7 179 297.7 179.6Q296.8 180.2 295.5 180.2ZM295.5 178.9Q296.7 178.9 297.5 178.2Q298.2 177.5 298.2 176V174.7Q298.2 173.2 297.5 172.5Q296.7 171.8 295.5 171.8Q294.4 171.8 293.6 172.5Q292.9 173.2 292.9 174.7V176Q292.9 177.5 293.6 178.2Q294.4 178.9 295.5 178.9ZM304.9 180.2Q303.6 180.2 302.7 179.7Q301.9 179.2 301.2 178.4L302.3 177.6Q302.8 178.2 303.5 178.6Q304.1 179 305 179Q305.9 179 306.4 178.6Q307 178.2 307 177.5Q307 176.9 306.6 176.5Q306.3 176.1 305.3 176L304.6 175.9Q303.8 175.8 303.1 175.5Q302.4 175.2 302 174.6Q301.6 174.1 301.6 173.2Q301.6 171.8 302.6 171.2Q303.5 170.5 304.9 170.5Q305.7 170.5 306.3 170.7Q306.9 170.9 307.3 171.2Q307.8 171.5 308.2 172L307.2 172.9Q306.9 172.4 306.3 172.1Q305.7 171.7 304.8 171.7Q303.9 171.7 303.5 172.1Q303 172.5 303 173.2Q303 173.8 303.5 174.1Q303.9 174.5 304.8 174.6L305.5 174.7Q307 174.9 307.7 175.6Q308.3 176.3 308.3 177.3Q308.3 178.2 307.9 178.9Q307.5 179.5 306.7 179.9Q306 180.2 304.9 180.2ZM314.6 180H312.8Q312.1 180 311.7 179.6Q311.3 179.1 311.3 178.5V172H309.7V170.7H310.6Q311.1 170.7 311.3 170.5Q311.4 170.3 311.4 169.9V168.1H312.7V170.7H314.8V172H312.7V178.7H314.6ZM320.5 180.2Q319.2 180.2 318.3 179.6Q317.4 179 316.8 177.9Q316.3 176.8 316.3 175.4Q316.3 173.9 316.8 172.8Q317.4 171.7 318.3 171.1Q319.2 170.5 320.5 170.5Q321.7 170.5 322.6 171.1Q323.5 171.7 324 172.7Q324.5 173.7 324.5 175V175.7H317.8V176.1Q317.8 177.4 318.6 178.2Q319.3 179 320.6 179Q321.5 179 322.1 178.5Q322.8 178.1 323.1 177.4L324.2 178.1Q323.7 179 322.8 179.6Q321.8 180.2 320.5 180.2ZM320.5 171.7Q319.7 171.7 319.1 172.1Q318.5 172.4 318.2 173.1Q317.8 173.7 317.8 174.5V174.6H323V174.4Q323 173.6 322.7 173Q322.3 172.4 321.8 172Q321.2 171.7 320.5 171.7ZM332.8 180V178.5H332.8Q332.3 179.4 331.7 179.8Q331 180.2 330 180.2Q328.9 180.2 328 179.6Q327.2 179 326.7 177.9Q326.3 176.8 326.3 175.4Q326.3 173.9 326.7 172.8Q327.2 171.7 328 171.1Q328.9 170.5 330 170.5Q331 170.5 331.7 170.9Q332.4 171.3 332.8 172.2H332.8V166.7H334.3V180ZM330.4 178.9Q331.1 178.9 331.6 178.7Q332.2 178.5 332.5 178Q332.8 177.6 332.8 177V173.6Q332.8 173.1 332.5 172.7Q332.2 172.3 331.6 172Q331.1 171.8 330.4 171.8Q329.2 171.8 328.5 172.6Q327.8 173.3 327.8 174.6V176.1Q327.8 177.4 328.5 178.2Q329.2 178.9 330.4 178.9ZM342.1 180V172H340.6V170.7H342.1V168.8Q342.1 167.9 342.6 167.3Q343.1 166.7 344.1 166.7H345.5V167.9H343.5V170.7H345.5V172H343.5V180ZM350.8 180.2Q349.6 180.2 348.6 179.6Q347.7 179 347.2 177.9Q346.6 176.8 346.6 175.4Q346.6 173.9 347.2 172.8Q347.7 171.7 348.6 171.1Q349.6 170.5 350.8 170.5Q352.1 170.5 353 171.1Q353.9 171.7 354.4 172.7Q354.8 173.7 354.8 175V175.7H348.2V176.1Q348.2 177.4 348.9 178.2Q349.6 179 350.9 179Q351.8 179 352.5 178.5Q353.1 178.1 353.5 177.4L354.5 178.1Q354 179 353.1 179.6Q352.1 180.2 350.8 180.2ZM350.8 171.7Q350.1 171.7 349.4 172.1Q348.8 172.4 348.5 173.1Q348.2 173.7 348.2 174.5V174.6H353.3V174.4Q353.3 173.6 353 173Q352.7 172.4 352.1 172Q351.6 171.7 350.8 171.7ZM364.8 180H364Q363.4 180 363 179.8Q362.7 179.5 362.5 179.1Q362.3 178.7 362.3 178.1V178L362.9 178.5H362.3Q362 179.3 361.3 179.8Q360.6 180.2 359.6 180.2Q358.1 180.2 357.3 179.5Q356.5 178.7 356.5 177.4Q356.5 176.5 356.9 175.9Q357.3 175.3 358.2 175Q359.1 174.7 360.4 174.7H362.3V173.8Q362.3 172.8 361.7 172.3Q361.2 171.7 360.1 171.7Q359.2 171.7 358.7 172.1Q358.1 172.5 357.7 173.1L356.9 172.3Q357.2 171.6 358.1 171Q358.9 170.5 360.1 170.5Q361.8 170.5 362.8 171.3Q363.7 172.2 363.7 173.6V178.7H364.8ZM362.3 175.8H360.4Q359.1 175.8 358.6 176.1Q358 176.5 358 177.2V177.6Q358 178.2 358.5 178.6Q359 179 359.8 179Q360.5 179 361.1 178.8Q361.6 178.5 362 178.2Q362.3 177.8 362.3 177.3ZM370.7 180H368.9Q368.1 180 367.7 179.6Q367.3 179.1 367.3 178.5V172H365.8V170.7H366.7Q367.2 170.7 367.3 170.5Q367.5 170.3 367.5 169.9V168.1H368.8V170.7H370.8V172H368.8V178.7H370.7ZM378.9 180V178.5H378.8Q378.5 179.2 377.9 179.7Q377.4 180.2 376.2 180.2Q374.8 180.2 373.9 179.3Q373.1 178.4 373.1 176.7V170.7H374.5V176.4Q374.5 177.7 375 178.3Q375.6 178.9 376.6 178.9Q377.2 178.9 377.7 178.7Q378.2 178.5 378.5 178.1Q378.9 177.8 378.9 177.1V170.7H380.3V180ZM384.8 180H383.4V170.7H384.8V172.4H384.9Q385.1 172 385.4 171.6Q385.7 171.2 386.3 171Q386.8 170.7 387.6 170.7H388.1V172.2H387.3Q386.5 172.2 386 172.4Q385.4 172.6 385.1 172.9Q384.8 173.2 384.8 173.7ZM393.4 180.2Q392.1 180.2 391.2 179.6Q390.2 179 389.7 177.9Q389.2 176.8 389.2 175.4Q389.2 173.9 389.7 172.8Q390.2 171.7 391.2 171.1Q392.1 170.5 393.4 170.5Q394.6 170.5 395.5 171.1Q396.4 171.7 396.9 172.7Q397.4 173.7 397.4 175V175.7H390.7V176.1Q390.7 177.4 391.4 178.2Q392.2 179 393.5 179Q394.3 179 395 178.5Q395.7 178.1 396 177.4L397 178.1Q396.6 179 395.6 179.6Q394.7 180.2 393.4 180.2ZM393.4 171.7Q392.6 171.7 392 172.1Q391.4 172.4 391.1 173.1Q390.7 173.7 390.7 174.5V174.6H395.8V174.4Q395.8 173.6 395.5 173Q395.2 172.4 394.7 172Q394.1 171.7 393.4 171.7ZM404.5 180V172H403V170.7H404.5V168.8Q404.5 167.9 405 167.3Q405.5 166.7 406.6 166.7H408V167.9H406V170.7H408V172H406V180ZM412.7 180H411.4Q410.6 180 410.2 179.6Q409.8 179.2 409.8 178.5V166.7H411.3V178.7H412.7ZM422.3 180H421.5Q420.9 180 420.6 179.8Q420.2 179.5 420 179.1Q419.9 178.7 419.9 178.1V178L420.4 178.5H419.8Q419.5 179.3 418.8 179.8Q418.1 180.2 417.1 180.2Q415.6 180.2 414.8 179.5Q414 178.7 414 177.4Q414 176.5 414.4 175.9Q414.9 175.3 415.7 175Q416.6 174.7 418 174.7H419.8V173.8Q419.8 172.8 419.3 172.3Q418.7 171.7 417.6 171.7Q416.8 171.7 416.2 172.1Q415.6 172.5 415.2 173.1L414.4 172.3Q414.8 171.6 415.6 171Q416.4 170.5 417.7 170.5Q419.4 170.5 420.3 171.3Q421.2 172.2 421.2 173.6V178.7H422.3ZM419.8 175.8H417.9Q416.7 175.8 416.1 176.1Q415.5 176.5 415.5 177.2V177.6Q415.5 178.2 416 178.6Q416.5 179 417.4 179Q418.1 179 418.6 178.8Q419.2 178.5 419.5 178.2Q419.8 177.8 419.8 177.3ZM432.2 181Q432.2 182 431.7 182.6Q431.2 183.2 430.2 183.5Q429.2 183.8 427.7 183.8Q426.2 183.8 425.3 183.5Q424.4 183.3 424 182.8Q423.6 182.2 423.6 181.5Q423.6 180.8 424 180.3Q424.4 179.9 425.1 179.7V179.5Q424.7 179.3 424.5 179Q424.2 178.7 424.2 178.2Q424.2 177.5 424.7 177.2Q425.1 176.8 425.8 176.6V176.5Q425 176.1 424.6 175.4Q424.1 174.7 424.1 173.7Q424.1 172.7 424.5 172Q425 171.3 425.8 170.9Q426.6 170.5 427.6 170.5Q428.1 170.5 428.5 170.6Q429 170.7 429.4 170.9V170.7Q429.4 170.2 429.6 169.8Q429.9 169.5 430.4 169.5H431.8V170.7H430.1V171.3Q430.6 171.7 430.8 172.3Q431.1 173 431.1 173.7Q431.1 174.6 430.7 175.4Q430.3 176.1 429.5 176.5Q428.7 176.9 427.6 176.9Q427.4 176.9 427.1 176.9Q426.9 176.8 426.7 176.8Q426.3 176.9 425.9 177.2Q425.5 177.4 425.5 177.9Q425.5 178.3 425.9 178.4Q426.3 178.6 426.9 178.6H428.9Q430.6 178.6 431.4 179.2Q432.2 179.9 432.2 181ZM430.8 181.1Q430.8 180.6 430.4 180.2Q430 179.9 428.9 179.9H425.8Q425.4 180.1 425.2 180.4Q424.9 180.7 424.9 181.2Q424.9 181.8 425.4 182.2Q425.9 182.6 427 182.6H428.3Q429.5 182.6 430.2 182.3Q430.8 181.9 430.8 181.1ZM427.6 175.8Q428.5 175.8 429.1 175.3Q429.6 174.9 429.6 174V173.4Q429.6 172.5 429.1 172.1Q428.5 171.6 427.6 171.6Q426.7 171.6 426.2 172.1Q425.6 172.5 425.6 173.4V174Q425.6 174.9 426.2 175.3Q426.7 175.8 427.6 175.8ZM436.6 180.2Q435.4 180.2 434.5 179.7Q433.6 179.2 433 178.4L434 177.6Q434.5 178.2 435.2 178.6Q435.9 179 436.8 179Q437.7 179 438.2 178.6Q438.7 178.2 438.7 177.5Q438.7 176.9 438.4 176.5Q438 176.1 437.1 176L436.3 175.9Q435.5 175.8 434.8 175.5Q434.1 175.2 433.7 174.6Q433.4 174.1 433.4 173.2Q433.4 171.8 434.3 171.2Q435.2 170.5 436.7 170.5Q437.4 170.5 438 170.7Q438.6 170.9 439.1 171.2Q439.5 171.5 439.9 172L439 172.9Q438.6 172.4 438.1 172.1Q437.5 171.7 436.6 171.7Q435.7 171.7 435.2 172.1Q434.7 172.5 434.7 173.2Q434.7 173.8 435.2 174.1Q435.7 174.5 436.5 174.6L437.2 174.7Q438.8 174.9 439.4 175.6Q440.1 176.3 440.1 177.3Q440.1 178.2 439.7 178.9Q439.3 179.5 438.5 179.9Q437.7 180.2 436.6 180.2ZM443.5 177.9Q444 177.9 444.3 178.2Q444.6 178.5 444.6 179V179.2Q444.6 179.9 444.1 180.8Q443.7 181.7 442.9 182.4H441.7Q442.2 181.8 442.6 181.3Q442.9 180.8 443.1 180.2Q442.7 180.1 442.5 179.8Q442.4 179.6 442.4 179.2V179Q442.4 178.5 442.6 178.2Q442.9 177.9 443.5 177.9ZM451.7 183.6V170.7H453.1V172.2H453.2Q453.6 171.3 454.3 170.9Q455 170.5 455.9 170.5Q457.1 170.5 457.9 171.1Q458.8 171.7 459.2 172.8Q459.7 173.9 459.7 175.4Q459.7 176.8 459.2 177.9Q458.8 179 457.9 179.6Q457.1 180.2 455.9 180.2Q455 180.2 454.3 179.8Q453.6 179.4 453.2 178.5H453.1V183.6ZM455.5 178.9Q456.7 178.9 457.4 178.2Q458.1 177.4 458.1 176.1V174.6Q458.1 173.3 457.4 172.6Q456.7 171.8 455.5 171.8Q454.9 171.8 454.3 172Q453.8 172.3 453.4 172.7Q453.1 173.1 453.1 173.6V177Q453.1 177.6 453.4 178Q453.8 178.5 454.3 178.7Q454.9 178.9 455.5 178.9ZM463.6 180H462.1V170.7H463.6V172.4H463.6Q463.8 172 464.2 171.6Q464.5 171.2 465 171Q465.6 170.7 466.3 170.7H466.9V172.2H466Q465.3 172.2 464.7 172.4Q464.2 172.6 463.9 172.9Q463.6 173.2 463.6 173.7ZM472.1 180.2Q470.9 180.2 470 179.6Q469 179 468.5 177.9Q468 176.8 468 175.4Q468 173.9 468.5 172.8Q469 171.7 470 171.1Q470.9 170.5 472.1 170.5Q473.4 170.5 474.3 171.1Q475.3 171.7 475.8 172.8Q476.3 173.9 476.3 175.4Q476.3 176.8 475.8 177.9Q475.3 179 474.3 179.6Q473.4 180.2 472.1 180.2ZM472.1 178.9Q473.3 178.9 474.1 178.2Q474.8 177.5 474.8 176V174.7Q474.8 173.2 474.1 172.5Q473.3 171.8 472.1 171.8Q471 171.8 470.2 172.5Q469.5 173.2 469.5 174.7V176Q469.5 177.5 470.2 178.2Q471 178.9 472.1 178.9ZM480.2 180H478.7V170.7H480.2V172.2H480.2Q480.5 171.5 481.1 171Q481.6 170.5 482.7 170.5Q483.6 170.5 484.4 170.9Q485.2 171.4 485.6 172.4H485.6Q485.9 171.6 486.6 171.1Q487.2 170.5 488.4 170.5Q489.9 170.5 490.7 171.4Q491.5 172.3 491.5 174V180H490V174.3Q490 173.1 489.5 172.4Q489 171.8 488 171.8Q487.4 171.8 486.9 172Q486.4 172.2 486.1 172.6Q485.8 173 485.8 173.6V180H484.4V174.3Q484.4 173.1 483.9 172.4Q483.4 171.8 482.4 171.8Q481.8 171.8 481.3 172Q480.8 172.2 480.5 172.6Q480.2 173 480.2 173.6ZM497.9 180.2Q496.7 180.2 495.8 179.6Q494.8 179 494.3 177.9Q493.7 176.8 493.7 175.4Q493.7 173.9 494.3 172.8Q494.8 171.7 495.8 171.1Q496.7 170.5 497.9 170.5Q499.2 170.5 500.1 171.1Q501.1 171.7 501.6 172.8Q502.1 173.9 502.1 175.4Q502.1 176.8 501.6 177.9Q501.1 179 500.1 179.6Q499.2 180.2 497.9 180.2ZM497.9 178.9Q499.1 178.9 499.8 178.2Q500.6 177.5 500.6 176V174.7Q500.6 173.2 499.8 172.5Q499.1 171.8 497.9 171.8Q496.8 171.8 496 172.5Q495.3 173.2 495.3 174.7V176Q495.3 177.5 496 178.2Q496.8 178.9 497.9 178.9ZM508.4 180H506.6Q505.8 180 505.4 179.6Q505 179.1 505 178.5V172H503.5V170.7H504.4Q504.8 170.7 505 170.5Q505.2 170.3 505.2 169.9V168.1H506.5V170.7H508.5V172H506.5V178.7H508.4ZM514.2 180.2Q513 180.2 512.1 179.6Q511.1 179 510.6 177.9Q510.1 176.8 510.1 175.4Q510.1 173.9 510.6 172.8Q511.1 171.7 512.1 171.1Q513 170.5 514.2 170.5Q515.5 170.5 516.4 171.1Q517.3 171.7 517.8 172.7Q518.3 173.7 518.3 175V175.7H511.6V176.1Q511.6 177.4 512.3 178.2Q513 179 514.3 179Q515.2 179 515.9 178.5Q516.5 178.1 516.9 177.4L517.9 178.1Q517.5 179 516.5 179.6Q515.6 180.2 514.2 180.2ZM514.2 171.7Q513.5 171.7 512.9 172.1Q512.3 172.4 511.9 173.1Q511.6 173.7 511.6 174.5V174.6H516.7V174.4Q516.7 173.6 516.4 173Q516.1 172.4 515.5 172Q515 171.7 514.2 171.7ZM526.6 180V178.5H526.5Q526.1 179.4 525.4 179.8Q524.7 180.2 523.8 180.2Q522.6 180.2 521.8 179.6Q520.9 179 520.5 177.9Q520 176.8 520 175.4Q520 173.9 520.5 172.8Q520.9 171.7 521.8 171.1Q522.6 170.5 523.8 170.5Q524.7 170.5 525.4 170.9Q526.1 171.3 526.5 172.2H526.6V166.7H528V180ZM524.2 178.9Q524.8 178.9 525.4 178.7Q525.9 178.5 526.3 178Q526.6 177.6 526.6 177V173.6Q526.6 173.1 526.3 172.7Q525.9 172.3 525.4 172Q524.8 171.8 524.2 171.8Q523 171.8 522.3 172.6Q521.6 173.3 521.6 174.6V176.1Q521.6 177.4 522.3 178.2Q523 178.9 524.2 178.9ZM539.2 180H537.4Q536.6 180 536.2 179.6Q535.8 179.1 535.8 178.5V172H534.3V170.7H535.2Q535.6 170.7 535.8 170.5Q536 170.3 536 169.9V168.1H537.3V170.7H539.3V172H537.3V178.7H539.2ZM541.6 180V166.7H543.1V172.2H543.2Q543.5 171.4 544.1 171Q544.7 170.5 545.8 170.5Q547.2 170.5 548.1 171.4Q548.9 172.3 548.9 174V180H547.5V174.3Q547.5 173.1 546.9 172.4Q546.4 171.8 545.4 171.8Q544.8 171.8 544.3 172Q543.7 172.2 543.4 172.6Q543.1 173 543.1 173.6V180ZM553.3 180H551.9V170.7H553.3V172.4H553.4Q553.6 172 553.9 171.6Q554.2 171.2 554.8 171Q555.3 170.7 556.1 170.7H556.6V172.2H555.8Q555 172.2 554.5 172.4Q553.9 172.6 553.6 172.9Q553.3 173.2 553.3 173.7ZM561.9 180.2Q560.7 180.2 559.7 179.6Q558.8 179 558.2 177.9Q557.7 176.8 557.7 175.4Q557.7 173.9 558.2 172.8Q558.8 171.7 559.7 171.1Q560.7 170.5 561.9 170.5Q563.1 170.5 564.1 171.1Q565 171.7 565.6 172.8Q566.1 173.9 566.1 175.4Q566.1 176.8 565.6 177.9Q565 179 564.1 179.6Q563.1 180.2 561.9 180.2ZM561.9 178.9Q563.1 178.9 563.8 178.2Q564.5 177.5 564.5 176V174.7Q564.5 173.2 563.8 172.5Q563.1 171.8 561.9 171.8Q560.7 171.8 560 172.5Q559.2 173.2 559.2 174.7V176Q559.2 177.5 560 178.2Q560.7 178.9 561.9 178.9ZM574.2 180V178.5H574.1Q573.8 179.2 573.3 179.7Q572.7 180.2 571.5 180.2Q570.1 180.2 569.2 179.3Q568.4 178.4 568.4 176.7V170.7H569.8V176.4Q569.8 177.7 570.4 178.3Q570.9 178.9 571.9 178.9Q572.5 178.9 573 178.7Q573.5 178.5 573.9 178.1Q574.2 177.8 574.2 177.1V170.7H575.6V180ZM586.5 181Q586.5 182 586 182.6Q585.5 183.2 584.5 183.5Q583.5 183.8 582 183.8Q580.6 183.8 579.7 183.5Q578.8 183.3 578.3 182.8Q577.9 182.2 577.9 181.5Q577.9 180.8 578.3 180.3Q578.7 179.9 579.4 179.7V179.5Q579 179.3 578.8 179Q578.6 178.7 578.6 178.2Q578.6 177.5 579 177.2Q579.5 176.8 580.2 176.6V176.5Q579.4 176.1 578.9 175.4Q578.4 174.7 578.4 173.7Q578.4 172.7 578.9 172Q579.3 171.3 580.1 170.9Q580.9 170.5 581.9 170.5Q582.4 170.5 582.9 170.6Q583.3 170.7 583.7 170.9V170.7Q583.7 170.2 583.9 169.8Q584.2 169.5 584.8 169.5H586.2V170.7H584.4V171.3Q584.9 171.7 585.2 172.3Q585.5 173 585.5 173.7Q585.5 174.6 585 175.4Q584.6 176.1 583.8 176.5Q583 176.9 581.9 176.9Q581.7 176.9 581.5 176.9Q581.2 176.8 581 176.8Q580.6 176.9 580.2 177.2Q579.8 177.4 579.8 177.9Q579.8 178.3 580.2 178.4Q580.6 178.6 581.2 178.6H583.2Q585 178.6 585.7 179.2Q586.5 179.9 586.5 181ZM585.2 181.1Q585.2 180.6 584.7 180.2Q584.3 179.9 583.2 179.9H580.1Q579.7 180.1 579.5 180.4Q579.3 180.7 579.3 181.2Q579.3 181.8 579.7 182.2Q580.2 182.6 581.3 182.6H582.6Q583.8 182.6 584.5 182.3Q585.2 181.9 585.2 181.1ZM581.9 175.8Q582.9 175.8 583.4 175.3Q583.9 174.9 583.9 174V173.4Q583.9 172.5 583.4 172.1Q582.9 171.6 581.9 171.6Q581 171.6 580.5 172.1Q579.9 172.5 579.9 173.4V174Q579.9 174.9 580.5 175.3Q581 175.8 581.9 175.8ZM588.2 180V166.7H589.6V172.2H589.7Q590 171.4 590.7 171Q591.3 170.5 592.3 170.5Q593.8 170.5 594.6 171.4Q595.4 172.3 595.4 174V180H594V174.3Q594 173.1 593.5 172.4Q592.9 171.8 591.9 171.8Q591.3 171.8 590.8 172Q590.3 172.2 590 172.6Q589.6 173 589.6 173.6V180ZM610.2 180H609.4Q608.8 180 608.5 179.8Q608.1 179.5 608 179.1Q607.8 178.7 607.8 178.1V178L608.4 178.5H607.7Q607.4 179.3 606.7 179.8Q606 180.2 605 180.2Q603.6 180.2 602.7 179.5Q601.9 178.7 601.9 177.4Q601.9 176.5 602.4 175.9Q602.8 175.3 603.7 175Q604.5 174.7 605.9 174.7H607.7V173.8Q607.7 172.8 607.2 172.3Q606.6 171.7 605.5 171.7Q604.7 171.7 604.1 172.1Q603.5 172.5 603.2 173.1L602.3 172.3Q602.7 171.6 603.5 171Q604.3 170.5 605.6 170.5Q607.3 170.5 608.2 171.3Q609.2 172.2 609.2 173.6V178.7H610.2ZM607.7 175.8H605.8Q604.6 175.8 604 176.1Q603.4 176.5 603.4 177.2V177.6Q603.4 178.2 603.9 178.6Q604.4 179 605.3 179Q606 179 606.5 178.8Q607.1 178.5 607.4 178.2Q607.7 177.8 607.7 177.3ZM613.7 180H612.3V170.7H613.7V172.2H613.8Q614.1 171.4 614.8 171Q615.4 170.5 616.4 170.5Q617.9 170.5 618.7 171.4Q619.5 172.3 619.5 174V180H618.1V174.3Q618.1 173.1 617.6 172.4Q617 171.8 616 171.8Q615.4 171.8 614.9 172Q614.4 172.2 614 172.6Q613.7 173 613.7 173.6ZM630.3 180.2Q629 180.2 628.1 179.6Q627.1 179 626.6 177.9Q626.1 176.8 626.1 175.4Q626.1 173.9 626.6 172.8Q627.1 171.7 628.1 171.1Q629 170.5 630.3 170.5Q631.5 170.5 632.4 171.1Q633.4 171.7 633.9 172.8Q634.5 173.9 634.5 175.4Q634.5 176.8 633.9 177.9Q633.4 179 632.4 179.6Q631.5 180.2 630.3 180.2ZM630.3 178.9Q631.4 178.9 632.2 178.2Q632.9 177.5 632.9 176V174.7Q632.9 173.2 632.2 172.5Q631.4 171.8 630.3 171.8Q629.1 171.8 628.4 172.5Q627.6 173.2 627.6 174.7V176Q627.6 177.5 628.4 178.2Q629.1 178.9 630.3 178.9ZM638.3 180H636.8V170.7H638.3V172.4H638.4Q638.5 172 638.9 171.6Q639.2 171.2 639.7 171Q640.3 170.7 641 170.7H641.6V172.2H640.8Q640 172.2 639.4 172.4Q638.9 172.6 638.6 172.9Q638.3 173.2 638.3 173.7ZM649.3 180V178.5H649.2Q648.8 179.4 648.1 179.8Q647.4 180.2 646.5 180.2Q645.3 180.2 644.5 179.6Q643.6 179 643.2 177.9Q642.7 176.8 642.7 175.4Q642.7 173.9 643.2 172.8Q643.6 171.7 644.5 171.1Q645.3 170.5 646.5 170.5Q647.4 170.5 648.1 170.9Q648.8 171.3 649.2 172.2H649.3V166.7H650.7V180ZM646.9 178.9Q647.5 178.9 648.1 178.7Q648.6 178.5 648.9 178Q649.3 177.6 649.3 177V173.6Q649.3 173.1 648.9 172.7Q648.6 172.3 648.1 172Q647.5 171.8 646.9 171.8Q645.7 171.8 645 172.6Q644.2 173.3 644.2 174.6V176.1Q644.2 177.4 645 178.2Q645.7 178.9 646.9 178.9ZM657.3 180.2Q656 180.2 655.1 179.6Q654.1 179 653.6 177.9Q653.1 176.8 653.1 175.4Q653.1 173.9 653.6 172.8Q654.1 171.7 655.1 171.1Q656 170.5 657.3 170.5Q658.5 170.5 659.4 171.1Q660.3 171.7 660.8 172.7Q661.3 173.7 661.3 175V175.7H654.6V176.1Q654.6 177.4 655.3 178.2Q656.1 179 657.3 179Q658.2 179 658.9 178.5Q659.5 178.1 659.9 177.4L660.9 178.1Q660.5 179 659.5 179.6Q658.6 180.2 657.3 180.2ZM657.3 171.7Q656.5 171.7 655.9 172.1Q655.3 172.4 654.9 173.1Q654.6 173.7 654.6 174.5V174.6H659.7V174.4Q659.7 173.6 659.4 173Q659.1 172.4 658.6 172Q658 171.7 657.3 171.7ZM665.1 180H663.6V170.7H665.1V172.4H665.2Q665.3 172 665.7 171.6Q666 171.2 666.6 171Q667.1 170.7 667.9 170.7H668.4V172.2H667.6Q666.8 172.2 666.2 172.4Q665.7 172.6 665.4 172.9Q665.1 173.2 665.1 173.7ZM673.7 180.2Q672.4 180.2 671.5 179.6Q670.5 179 670 177.9Q669.5 176.8 669.5 175.4Q669.5 173.9 670 172.8Q670.5 171.7 671.5 171.1Q672.4 170.5 673.7 170.5Q674.9 170.5 675.8 171.1Q676.7 171.7 677.2 172.7Q677.7 173.7 677.7 175V175.7H671V176.1Q671 177.4 671.7 178.2Q672.4 179 673.7 179Q674.6 179 675.3 178.5Q675.9 178.1 676.3 177.4L677.3 178.1Q676.9 179 675.9 179.6Q675 180.2 673.7 180.2ZM673.7 171.7Q672.9 171.7 672.3 172.1Q671.7 172.4 671.3 173.1Q671 173.7 671 174.5V174.6H676.1V174.4Q676.1 173.6 675.8 173Q675.5 172.4 675 172Q674.4 171.7 673.7 171.7ZM686 180V178.5H685.9Q685.5 179.4 684.8 179.8Q684.1 180.2 683.2 180.2Q682 180.2 681.2 179.6Q680.3 179 679.9 177.9Q679.4 176.8 679.4 175.4Q679.4 173.9 679.9 172.8Q680.3 171.7 681.2 171.1Q682 170.5 683.2 170.5Q684.1 170.5 684.9 170.9Q685.6 171.3 685.9 172.2H686V166.7H687.4V180ZM683.6 178.9Q684.3 178.9 684.8 178.7Q685.3 178.5 685.7 178Q686 177.6 686 177V173.6Q686 173.1 685.7 172.7Q685.3 172.3 684.8 172Q684.3 171.8 683.6 171.8Q682.4 171.8 681.7 172.6Q681 173.3 681 174.6V176.1Q681 177.4 681.7 178.2Q682.4 178.9 683.6 178.9ZM694.7 183.6V170.7H696.2V172.2H696.2Q696.6 171.3 697.3 170.9Q698 170.5 699 170.5Q700.1 170.5 701 171.1Q701.8 171.7 702.3 172.8Q702.7 173.9 702.7 175.4Q702.7 176.8 702.3 177.9Q701.8 179 701 179.6Q700.1 180.2 699 180.2Q698 180.2 697.3 179.8Q696.7 179.4 696.2 178.5H696.2V183.6ZM698.6 178.9Q699.8 178.9 700.5 178.2Q701.2 177.4 701.2 176.1V174.6Q701.2 173.3 700.5 172.6Q699.8 171.8 698.6 171.8Q697.9 171.8 697.4 172Q696.8 172.3 696.5 172.7Q696.2 173.1 696.2 173.6V177Q696.2 177.6 696.5 178Q696.8 178.5 697.4 178.7Q697.9 178.9 698.6 178.9ZM705.9 168.5Q705.4 168.5 705.2 168.3Q705 168.1 705 167.7V167.5Q705 167.1 705.2 166.9Q705.4 166.7 705.9 166.7Q706.4 166.7 706.6 166.9Q706.8 167.1 706.8 167.5V167.7Q706.8 168.1 706.6 168.3Q706.4 168.5 705.9 168.5ZM705.2 180V170.7H706.6V180ZM709.7 183.6V170.7H711.1V172.2H711.2Q711.5 171.3 712.2 170.9Q712.9 170.5 713.9 170.5Q715.1 170.5 715.9 171.1Q716.8 171.7 717.2 172.8Q717.7 173.9 717.7 175.4Q717.7 176.8 717.2 177.9Q716.8 179 715.9 179.6Q715.1 180.2 713.9 180.2Q712.9 180.2 712.3 179.8Q711.6 179.4 711.2 178.5H711.1V183.6ZM713.5 178.9Q714.7 178.9 715.4 178.2Q716.1 177.4 716.1 176.1V174.6Q716.1 173.3 715.4 172.6Q714.7 171.8 713.5 171.8Q712.9 171.8 712.3 172Q711.8 172.3 711.4 172.7Q711.1 173.1 711.1 173.6V177Q711.1 177.6 711.4 178Q711.8 178.5 712.3 178.7Q712.9 178.9 713.5 178.9ZM723.6 180.2Q722.3 180.2 721.4 179.6Q720.5 179 720 177.9Q719.4 176.8 719.4 175.4Q719.4 173.9 720 172.8Q720.5 171.7 721.4 171.1Q722.3 170.5 723.6 170.5Q724.8 170.5 725.7 171.1Q726.6 171.7 727.1 172.7Q727.6 173.7 727.6 175V175.7H720.9V176.1Q720.9 177.4 721.7 178.2Q722.4 179 723.7 179Q724.6 179 725.2 178.5Q725.9 178.1 726.3 177.4L727.3 178.1Q726.8 179 725.9 179.6Q724.9 180.2 723.6 180.2ZM723.6 171.7Q722.8 171.7 722.2 172.1Q721.6 172.4 721.3 173.1Q720.9 173.7 720.9 174.5V174.6H726.1V174.4Q726.1 173.6 725.8 173Q725.5 172.4 724.9 172Q724.3 171.7 723.6 171.7ZM732.8 180H731.5Q730.8 180 730.4 179.6Q730 179.2 730 178.5V166.7H731.4V178.7H732.8ZM735.6 168.5Q735.2 168.5 734.9 168.3Q734.7 168.1 734.7 167.7V167.5Q734.7 167.1 734.9 166.9Q735.2 166.7 735.6 166.7Q736.1 166.7 736.3 166.9Q736.5 167.1 736.5 167.5V167.7Q736.5 168.1 736.3 168.3Q736.1 168.5 735.6 168.5ZM734.9 180V170.7H736.3V180ZM740.8 180H739.4V170.7H740.8V172.2H740.9Q741.2 171.4 741.9 171Q742.5 170.5 743.5 170.5Q745 170.5 745.8 171.4Q746.6 172.3 746.6 174V180H745.2V174.3Q745.2 173.1 744.7 172.4Q744.1 171.8 743.1 171.8Q742.5 171.8 742 172Q741.5 172.2 741.2 172.6Q740.8 173 740.8 173.6ZM753.1 180.2Q751.8 180.2 750.9 179.6Q750 179 749.5 177.9Q748.9 176.8 748.9 175.4Q748.9 173.9 749.5 172.8Q750 171.7 750.9 171.1Q751.8 170.5 753.1 170.5Q754.3 170.5 755.2 171.1Q756.1 171.7 756.6 172.7Q757.1 173.7 757.1 175V175.7H750.4V176.1Q750.4 177.4 751.2 178.2Q751.9 179 753.2 179Q754.1 179 754.7 178.5Q755.4 178.1 755.8 177.4L756.8 178.1Q756.3 179 755.4 179.6Q754.4 180.2 753.1 180.2ZM753.1 171.7Q752.3 171.7 751.7 172.1Q751.1 172.4 750.8 173.1Q750.4 173.7 750.4 174.5V174.6H755.6V174.4Q755.6 173.6 755.3 173Q755 172.4 754.4 172Q753.8 171.7 753.1 171.7Z" fill="#8C99A8"/><path d="M470.6 218H469.4V210.7H474V211.7H470.6V213.8H473.6V214.8H470.6ZM478.3 215V218H477.1V210.7H480.3Q480.9 210.7 481.4 210.9Q481.9 211.2 482.1 211.7Q482.4 212.2 482.4 212.9Q482.4 213.6 482 214.2Q481.7 214.7 481 214.9L482.5 218H481.2L479.8 215ZM478.3 214H480.2Q480.5 214 480.7 213.9Q480.9 213.8 481 213.6Q481.1 213.4 481.1 213.1V212.6Q481.1 212.3 481 212.1Q480.9 211.9 480.7 211.8Q480.5 211.7 480.2 211.7H478.3ZM488.4 218.1Q487.4 218.1 486.7 217.7Q486 217.3 485.6 216.4Q485.2 215.6 485.2 214.3Q485.2 213.1 485.6 212.3Q486 211.4 486.7 211Q487.4 210.5 488.4 210.5Q489.3 210.5 490.1 211Q490.8 211.4 491.2 212.3Q491.5 213.1 491.5 214.3Q491.5 215.6 491.2 216.4Q490.8 217.3 490.1 217.7Q489.3 218.1 488.4 218.1ZM488.4 217.1Q489 217.1 489.4 216.8Q489.8 216.5 490 216.1Q490.3 215.6 490.3 214.9V213.8Q490.3 213.1 490 212.6Q489.8 212.1 489.4 211.9Q489 211.6 488.4 211.6Q487.8 211.6 487.4 211.9Q487 212.1 486.7 212.6Q486.5 213.1 486.5 213.8V214.9Q486.5 215.6 486.7 216.1Q487 216.5 487.4 216.8Q487.8 217.1 488.4 217.1ZM499.1 218 496.7 214 495.9 212.4H495.8V214V218H494.7V210.7H496L498.4 214.7L499.2 216.3H499.3V214.7V210.7H500.4V218ZM508.8 211.7H506.6V218H505.4V211.7H503.2V210.7H508.8ZM514.4 218H511.2V217H512.2V211.6H511.2V210.7H514.4V211.6H513.4V217H514.4ZM522.3 218H517.6V210.7H522.3V211.7H518.8V213.8H522V214.8H518.8V216.9H522.3ZM526.7 215V218H525.5V210.7H528.6Q529.3 210.7 529.8 210.9Q530.2 211.2 530.5 211.7Q530.8 212.2 530.8 212.9Q530.8 213.6 530.4 214.2Q530 214.7 529.4 214.9L530.9 218H529.6L528.1 215ZM526.7 214H528.6Q528.9 214 529.1 213.9Q529.3 213.8 529.4 213.6Q529.5 213.4 529.5 213.1V212.6Q529.5 212.3 529.4 212.1Q529.3 211.9 529.1 211.8Q528.9 211.7 528.6 211.7H526.7Z" fill="#FF7F6E"/><path d="M500 226V240" stroke="#FF7F6E" stroke-width="1" opacity="0.55"/><path d="M250 252H375.0" stroke="#5BE0D0" stroke-width="3"/><path d="M250 252H375.0" stroke="#000" stroke-width="3" stroke-dasharray="1 12" opacity="0.45"/><path d="M375.0 252H500" stroke="#F5B655" stroke-width="3"/><path d="M375.0 252H500" stroke="#000" stroke-width="3" stroke-dasharray="1 12" opacity="0.45"/><path d="M500 252H625.0" stroke="#8C99A8" stroke-width="1" stroke-dasharray="2 6" opacity="0.55"/><path d="M625.0 252H750" stroke="#8C99A8" stroke-width="1" stroke-dasharray="2 6" opacity="0.55"/><rect x="240.0" y="242.0" width="20" height="20" fill="#5BE0D0" opacity="0.45" filter="url(#glow)"/><rect x="239.0" y="241.0" width="22" height="22" fill="none" stroke="#07090C" stroke-width="6"/><rect x="238.0" y="240.0" width="24" height="24" fill="none" stroke="#5BE0D0" stroke-width="2" opacity="0.3"/><rect x="242.0" y="244.0" width="16" height="16" fill="#5BE0D0"/><rect x="490.0" y="242.0" width="20" height="20" fill="#F5B655" opacity="0.45" filter="url(#glow)"/><rect x="489.0" y="241.0" width="22" height="22" fill="none" stroke="#07090C" stroke-width="6"/><rect x="488.0" y="240.0" width="24" height="24" fill="none" stroke="#F5B655" stroke-width="2" opacity="0.3"/><rect x="492.0" y="244.0" width="16" height="16" fill="#F5B655"/><rect x="742.5" y="244.5" width="15" height="15" fill="url(#hatch)" stroke="#8C99A8" stroke-opacity="0.42" stroke-width="1"/><path d="M227.9 292.1Q226.9 292.1 226.1 291.6Q225.4 291.1 225.1 290.1Q224.8 289.1 224.8 287.6Q224.8 286.2 225.1 285.2Q225.4 284.2 226.1 283.7Q226.9 283.1 227.9 283.1Q229 283.1 229.7 283.7Q230.4 284.2 230.7 285.2Q231.1 286.2 231.1 287.6Q231.1 289.1 230.7 290.1Q230.4 291.1 229.7 291.6Q229 292.1 227.9 292.1ZM227.9 290.9Q228.5 290.9 228.9 290.6Q229.2 290.3 229.4 289.7Q229.6 289.2 229.6 288.4V286.9Q229.6 286.1 229.4 285.5Q229.2 285 228.9 284.6Q228.5 284.3 227.9 284.3Q227.3 284.3 227 284.6Q226.6 285 226.4 285.5Q226.3 286.1 226.3 286.9V288.4Q226.3 289.2 226.4 289.7Q226.6 290.3 227 290.6Q227.3 290.9 227.9 290.9ZM237.4 292.1Q236.4 292.1 235.6 291.6Q234.9 291.1 234.6 290.1Q234.3 289.1 234.3 287.6Q234.3 286.2 234.6 285.2Q234.9 284.2 235.6 283.7Q236.4 283.1 237.4 283.1Q238.5 283.1 239.2 283.7Q239.9 284.2 240.2 285.2Q240.6 286.2 240.6 287.6Q240.6 289.1 240.2 290.1Q239.9 291.1 239.2 291.6Q238.5 292.1 237.4 292.1ZM237.4 290.9Q238 290.9 238.4 290.6Q238.8 290.3 238.9 289.7Q239.1 289.2 239.1 288.4V286.9Q239.1 286.1 238.9 285.5Q238.8 285 238.4 284.6Q238 284.3 237.4 284.3Q236.8 284.3 236.5 284.6Q236.1 285 235.9 285.5Q235.8 286.1 235.8 286.9V288.4Q235.8 289.2 235.9 289.7Q236.1 290.3 236.5 290.6Q236.8 290.9 237.4 290.9ZM249.2 292V283.3H252.3Q253.4 283.3 254.2 283.8Q255.1 284.2 255.5 285.2Q256 286.2 256 287.6Q256 289.1 255.5 290.1Q255.1 291 254.2 291.5Q253.4 292 252.3 292ZM250.6 290.8H252.3Q252.9 290.8 253.4 290.5Q253.9 290.2 254.2 289.7Q254.5 289.1 254.5 288.3V286.9Q254.5 286.1 254.2 285.6Q253.9 285.1 253.4 284.8Q252.9 284.5 252.3 284.5H250.6ZM265.3 292H259.7V283.3H265.3V284.5H261.1V287H264.9V288.2H261.1V290.8H265.3ZM272.7 292H271.1L268.2 283.3H269.7L271.1 287.6L271.9 290.6H271.9L272.8 287.6L274.2 283.3H275.6Z" fill="#5BE0D0"/><path d="M482.3 292.1Q481.3 292.1 480.6 291.6Q479.8 291.1 479.5 290.1Q479.2 289.1 479.2 287.6Q479.2 286.2 479.5 285.2Q479.8 284.2 480.6 283.7Q481.3 283.1 482.3 283.1Q483.4 283.1 484.1 283.7Q484.8 284.2 485.2 285.2Q485.5 286.2 485.5 287.6Q485.5 289.1 485.2 290.1Q484.8 291.1 484.1 291.6Q483.4 292.1 482.3 292.1ZM482.3 290.9Q482.9 290.9 483.3 290.6Q483.7 290.3 483.8 289.7Q484 289.2 484 288.4V286.9Q484 286.1 483.8 285.5Q483.7 285 483.3 284.6Q482.9 284.3 482.3 284.3Q481.7 284.3 481.4 284.6Q481 285 480.9 285.5Q480.7 286.1 480.7 286.9V288.4Q480.7 289.2 480.9 289.7Q481 290.3 481.4 290.6Q481.7 290.9 482.3 290.9ZM495.1 292H489.2V290.8H491.6V284.3H491.5L489.5 286.5L488.6 285.7L490.8 283.3H493V290.8H495.1ZM509.1 293V294.2H507.8Q507.1 294.2 506.8 293.8Q506.4 293.4 506.4 292.8V292.1Q505.4 292 504.7 291.4Q504 290.9 503.6 289.9Q503.2 289 503.2 287.6Q503.2 286.2 503.7 285.2Q504.1 284.2 505 283.6Q505.8 283.1 507 283.1Q508.1 283.1 509 283.6Q509.8 284.2 510.3 285.2Q510.7 286.2 510.7 287.6Q510.7 288.9 510.4 289.9Q510 290.8 509.3 291.4Q508.7 291.9 507.7 292.1V293ZM507 290.9Q507.7 290.9 508.2 290.6Q508.7 290.3 508.9 289.7Q509.2 289.1 509.2 288.3V286.9Q509.2 286.1 508.9 285.6Q508.7 285 508.2 284.7Q507.7 284.4 507 284.4Q506.3 284.4 505.8 284.7Q505.3 285 505 285.6Q504.7 286.1 504.7 286.9V288.3Q504.7 289.1 505 289.7Q505.3 290.3 505.8 290.6Q506.3 290.9 507 290.9ZM521.1 292H519.7L518.9 289.6H515.6L514.9 292H513.4L516.4 283.3H518.2ZM518.6 288.4 517.7 285.8 517.3 284.6H517.2L516.8 285.8L516 288.4Z" fill="#F5B655"/><path d="M722.1 292.1Q721 292.1 720.3 291.6Q719.6 291.1 719.3 290.1Q719 289.1 719 287.6Q719 286.2 719.3 285.2Q719.6 284.2 720.3 283.7Q721 283.1 722.1 283.1Q723.2 283.1 723.9 283.7Q724.6 284.2 724.9 285.2Q725.3 286.2 725.3 287.6Q725.3 289.1 724.9 290.1Q724.6 291.1 723.9 291.6Q723.2 292.1 722.1 292.1ZM722.1 290.9Q722.7 290.9 723.1 290.6Q723.4 290.3 723.6 289.7Q723.8 289.2 723.8 288.4V286.9Q723.8 286.1 723.6 285.5Q723.4 285 723.1 284.6Q722.7 284.3 722.1 284.3Q721.5 284.3 721.2 284.6Q720.8 285 720.6 285.5Q720.5 286.1 720.5 286.9V288.4Q720.5 289.2 720.6 289.7Q720.8 290.3 721.2 290.6Q721.5 290.9 722.1 290.9ZM734.6 290.8V292H728.7V290.6L731.5 288.2Q732.2 287.6 732.5 287Q732.9 286.5 732.9 285.9V285.7Q732.9 285.1 732.5 284.7Q732.1 284.4 731.5 284.4Q730.7 284.4 730.4 284.8Q730 285.1 729.8 285.7L728.6 285.2Q728.8 284.7 729.1 284.2Q729.5 283.7 730.1 283.4Q730.7 283.1 731.6 283.1Q732.5 283.1 733.1 283.5Q733.7 283.8 734 284.4Q734.4 284.9 734.4 285.7Q734.4 286.4 734.1 287Q733.8 287.6 733.3 288Q732.9 288.5 732.3 289L730.2 290.8ZM744.8 292H743.4V283.3H747.1Q747.9 283.3 748.5 283.6Q749.1 283.9 749.4 284.5Q749.7 285.1 749.7 285.9Q749.7 286.7 749.4 287.3Q749.1 287.9 748.5 288.2Q747.9 288.5 747.1 288.5H744.8ZM744.8 284.5V287.3H747.1Q747.4 287.3 747.7 287.2Q747.9 287 748.1 286.8Q748.2 286.6 748.2 286.2V285.6Q748.2 285.2 748.1 285Q747.9 284.8 747.7 284.6Q747.4 284.5 747.1 284.5ZM754.6 288.5V292H753.2V283.3H757Q757.8 283.3 758.3 283.6Q758.9 283.9 759.2 284.5Q759.5 285.1 759.5 285.9Q759.5 286.8 759.1 287.4Q758.7 288.1 757.8 288.3L759.7 292H758.1L756.4 288.5ZM754.6 287.3H756.9Q757.2 287.3 757.5 287.2Q757.8 287 757.9 286.8Q758 286.6 758 286.2V285.6Q758 285.2 757.9 285Q757.8 284.8 757.5 284.6Q757.2 284.5 756.9 284.5H754.6ZM766.7 292.1Q765.5 292.1 764.7 291.6Q763.8 291.1 763.4 290.1Q762.9 289.1 762.9 287.6Q762.9 286.2 763.4 285.2Q763.8 284.2 764.7 283.6Q765.5 283.1 766.7 283.1Q767.8 283.1 768.6 283.6Q769.5 284.2 770 285.2Q770.4 286.2 770.4 287.6Q770.4 289.1 770 290.1Q769.5 291.1 768.6 291.6Q767.8 292.1 766.7 292.1ZM766.7 290.9Q767.3 290.9 767.8 290.6Q768.3 290.3 768.6 289.7Q768.9 289.1 768.9 288.3V286.9Q768.9 286.1 768.6 285.6Q768.3 285 767.8 284.7Q767.3 284.4 766.7 284.4Q766 284.4 765.5 284.7Q765 285 764.7 285.6Q764.4 286.1 764.4 286.9V288.3Q764.4 289.1 764.7 289.7Q765 290.3 765.5 290.6Q766 290.9 766.7 290.9ZM774.2 292V283.3H777.3Q778.4 283.3 779.2 283.8Q780 284.2 780.5 285.2Q781 286.2 781 287.6Q781 289.1 780.5 290.1Q780 291 779.2 291.5Q778.4 292 777.3 292ZM775.6 290.8H777.3Q777.9 290.8 778.4 290.5Q778.9 290.2 779.2 289.7Q779.4 289.1 779.4 288.3V286.9Q779.4 286.1 779.2 285.6Q778.9 285.1 778.4 284.8Q777.9 284.5 777.3 284.5H775.6Z" fill="#FF7F6E"/><path d="M100 314H900" stroke="#EDF1F6" stroke-width="1" opacity="0.07"/><path d="M104 336.2Q102.9 336.2 102.2 335.8Q101.4 335.4 100.9 334.8L101.6 334.2Q102.1 334.7 102.6 335Q103.2 335.3 104 335.3Q104.8 335.3 105.3 335Q105.8 334.7 105.8 334.1Q105.8 333.9 105.7 333.7Q105.6 333.5 105.4 333.4Q105.3 333.3 105 333.3Q104.8 333.2 104.6 333.2L103.5 333Q103.2 332.9 102.8 332.9Q102.4 332.8 102 332.6Q101.7 332.4 101.5 332Q101.2 331.7 101.2 331.1Q101.2 330.6 101.4 330.3Q101.7 329.9 102 329.6Q102.4 329.4 102.9 329.3Q103.4 329.1 104 329.1Q104.9 329.1 105.5 329.4Q106.2 329.7 106.7 330.2L106 330.9Q105.9 330.7 105.7 330.6Q105.5 330.4 105.3 330.3Q105 330.2 104.7 330.1Q104.4 330 103.9 330Q103.1 330 102.7 330.3Q102.3 330.6 102.3 331.1Q102.3 331.3 102.4 331.5Q102.5 331.7 102.6 331.8Q102.8 331.9 103 332Q103.2 332 103.5 332L104.5 332.2Q104.9 332.3 105.3 332.3Q105.7 332.4 106 332.6Q106.4 332.8 106.6 333.2Q106.8 333.5 106.8 334.1Q106.8 335.1 106 335.6Q105.3 336.2 104 336.2ZM111.8 336.2Q111.1 336.2 110.5 335.9Q109.9 335.7 109.5 335.2Q109.1 334.7 108.9 334.1Q108.7 333.5 108.7 332.7Q108.7 331.9 108.9 331.2Q109.1 330.6 109.5 330.1Q109.9 329.6 110.5 329.4Q111.1 329.1 111.8 329.1Q112.4 329.1 113 329.4Q113.5 329.6 113.9 330.1Q114.3 330.5 114.5 331.1Q114.7 331.7 114.7 332.4V332.9H109.8V333.2Q109.8 333.7 109.9 334Q110 334.4 110.3 334.7Q110.6 335 111 335.1Q111.3 335.3 111.8 335.3Q112.5 335.3 113 334.9Q113.5 334.6 113.7 334.1L114.5 334.6Q114.2 335.3 113.5 335.7Q112.8 336.2 111.8 336.2ZM111.8 330Q111.3 330 111 330.1Q110.6 330.3 110.3 330.6Q110.1 330.9 109.9 331.2Q109.8 331.6 109.8 332V332.1H113.6V332Q113.6 331.5 113.5 331.2Q113.3 330.8 113.1 330.5Q112.9 330.3 112.5 330.1Q112.2 330 111.8 330ZM116.6 335.1H119V327.3H116.6V326.4H120V335.1H122.4V336H116.6ZM124.5 335.1H126.7V330.2H124.3V329.3H126.7V327.9Q126.7 327.2 127.1 326.8Q127.5 326.4 128.2 326.4H130.5V327.3H127.8V329.3H130.5V330.2H127.8V335.1H130.2V336H124.5ZM133.2 332.6V331.5H137V332.6ZM140.3 326.4H141.3V330.4H141.4Q141.5 330.1 141.6 329.9Q141.8 329.7 142 329.5Q142.2 329.3 142.5 329.2Q142.9 329.1 143.3 329.1Q144.3 329.1 145 329.8Q145.6 330.5 145.6 331.7V336H144.6V331.9Q144.6 331 144.2 330.5Q143.8 330.1 143 330.1Q142.7 330.1 142.4 330.1Q142.1 330.2 141.8 330.4Q141.6 330.5 141.5 330.8Q141.3 331 141.3 331.3V336H140.3ZM150.7 336.2Q150 336.2 149.4 335.9Q148.9 335.7 148.5 335.2Q148.1 334.7 147.9 334.1Q147.7 333.5 147.7 332.6Q147.7 331.9 147.9 331.2Q148.1 330.6 148.5 330.1Q148.9 329.6 149.4 329.4Q150 329.1 150.7 329.1Q151.4 329.1 152 329.4Q152.5 329.6 152.9 330.1Q153.3 330.6 153.5 331.2Q153.7 331.9 153.7 332.6Q153.7 333.5 153.5 334.1Q153.3 334.7 152.9 335.2Q152.5 335.7 152 335.9Q151.4 336.2 150.7 336.2ZM150.7 335.3Q151.6 335.3 152.1 334.7Q152.6 334.2 152.6 333.1V332.2Q152.6 331.1 152.1 330.6Q151.6 330 150.7 330Q149.8 330 149.3 330.6Q148.8 331.1 148.8 332.2V333.1Q148.8 334.2 149.3 334.7Q149.8 335.3 150.7 335.3ZM158.6 336.2Q157.5 336.2 156.8 335.8Q156 335.4 155.5 334.8L156.2 334.2Q156.7 334.7 157.2 335Q157.8 335.3 158.6 335.3Q159.4 335.3 159.9 335Q160.4 334.7 160.4 334.1Q160.4 333.9 160.3 333.7Q160.2 333.5 160 333.4Q159.9 333.3 159.6 333.3Q159.4 333.2 159.2 333.2L158.1 333Q157.8 332.9 157.4 332.9Q157 332.8 156.6 332.6Q156.3 332.4 156.1 332Q155.8 331.7 155.8 331.1Q155.8 330.6 156 330.3Q156.3 329.9 156.6 329.6Q157 329.4 157.5 329.3Q158 329.1 158.6 329.1Q159.5 329.1 160.1 329.4Q160.8 329.7 161.3 330.2L160.6 330.9Q160.5 330.7 160.3 330.6Q160.1 330.4 159.9 330.3Q159.6 330.2 159.3 330.1Q159 330 158.5 330Q157.7 330 157.3 330.3Q156.9 330.6 156.9 331.1Q156.9 331.3 157 331.5Q157.1 331.7 157.2 331.8Q157.4 331.9 157.6 332Q157.8 332 158.1 332L159.1 332.2Q159.5 332.3 159.9 332.3Q160.3 332.4 160.6 332.6Q161 332.8 161.2 333.2Q161.4 333.5 161.4 334.1Q161.4 335.1 160.6 335.6Q159.9 336.2 158.6 336.2ZM166.6 336Q165.9 336 165.5 335.6Q165.1 335.1 165.1 334.5V330.2H162.9V329.3H164.6Q164.9 329.3 165 329.2Q165.2 329 165.2 328.7V326.9H166.2V329.3H169.2V330.2H166.2V335.1H169.2V336ZM174.2 336.2Q173.5 336.2 172.9 335.9Q172.3 335.7 171.9 335.2Q171.5 334.7 171.3 334.1Q171.1 333.5 171.1 332.7Q171.1 331.9 171.3 331.2Q171.5 330.6 171.9 330.1Q172.3 329.6 172.9 329.4Q173.5 329.1 174.2 329.1Q174.8 329.1 175.4 329.4Q175.9 329.6 176.3 330.1Q176.7 330.5 176.9 331.1Q177.1 331.7 177.1 332.4V332.9H172.2V333.2Q172.2 333.7 172.3 334Q172.4 334.4 172.7 334.7Q173 335 173.4 335.1Q173.7 335.3 174.2 335.3Q174.9 335.3 175.4 334.9Q175.9 334.6 176.1 334.1L176.9 334.6Q176.6 335.3 175.9 335.7Q175.2 336.2 174.2 336.2ZM174.2 330Q173.7 330 173.4 330.1Q173 330.3 172.7 330.6Q172.5 330.9 172.3 331.2Q172.2 331.6 172.2 332V332.1H176V332Q176 331.5 175.9 331.2Q175.7 330.8 175.5 330.5Q175.3 330.3 174.9 330.1Q174.6 330 174.2 330ZM183.5 334.9H183.5Q182.8 336.2 181.4 336.2Q180.2 336.2 179.5 335.2Q178.8 334.3 178.8 332.6Q178.8 331 179.5 330.1Q180.2 329.1 181.4 329.1Q182.8 329.1 183.5 330.4H183.5V326.4H184.6V336H183.5ZM181.8 335.2Q182.2 335.2 182.5 335.1Q182.8 335.1 183 334.9Q183.3 334.7 183.4 334.4Q183.5 334.2 183.5 333.9V331.4Q183.5 331.1 183.4 330.8Q183.3 330.6 183 330.4Q182.8 330.2 182.5 330.1Q182.2 330.1 181.8 330.1Q180.9 330.1 180.4 330.6Q179.9 331.2 179.9 332.1V333.2Q179.9 334.1 180.4 334.7Q180.9 335.2 181.8 335.2ZM197.5 332.9Q197 332.9 196.8 332.7Q196.5 332.5 196.5 332.2V331.9Q196.5 331.6 196.8 331.4Q197 331.2 197.5 331.2Q198 331.2 198.2 331.4Q198.5 331.6 198.5 331.9V332.2Q198.5 332.5 198.2 332.7Q198 332.9 197.5 332.9ZM209.9 336V329.3H210.9V330.1H210.9Q211.1 329.7 211.4 329.4Q211.6 329.1 212.2 329.1Q212.8 329.1 213.1 329.4Q213.4 329.7 213.4 330.2H213.5Q213.6 329.7 214 329.4Q214.3 329.1 214.9 329.1Q215.7 329.1 216 329.7Q216.3 330.3 216.3 331.3V336H215.3V331.5Q215.3 330.7 215.2 330.3Q215 330 214.5 330Q214.1 330 213.8 330.3Q213.6 330.5 213.6 331.1V336H212.6V331.5Q212.6 330.7 212.4 330.3Q212.3 330 211.8 330Q211.4 330 211.1 330.3Q210.9 330.5 210.9 331.1V336ZM221.3 327.8Q220.9 327.8 220.7 327.6Q220.5 327.4 220.5 327.1V326.9Q220.5 326.7 220.7 326.5Q220.9 326.3 221.3 326.3Q221.8 326.3 222 326.5Q222.1 326.7 222.1 326.9V327.1Q222.1 327.4 222 327.6Q221.8 327.8 221.3 327.8ZM218.4 335.1H220.8V330.2H218.4V329.3H221.8V335.1H224.1V336H218.4ZM229 336Q228.3 336 227.9 335.6Q227.5 335.1 227.5 334.5V330.2H225.3V329.3H227Q227.3 329.3 227.4 329.2Q227.6 329 227.6 328.7V326.9H228.6V329.3H231.6V330.2H228.6V335.1H231.6V336Z" fill="#8C99A8"/><path d="M612.6 326.4H613.7V330.4H613.7Q614.4 329.1 615.8 329.1Q617 329.1 617.7 330.1Q618.4 331 618.4 332.6Q618.4 334.3 617.7 335.2Q617 336.2 615.8 336.2Q614.4 336.2 613.7 334.9H613.7V336H612.6ZM615.4 335.2Q616.3 335.2 616.8 334.7Q617.3 334.1 617.3 333.2V332.1Q617.3 331.2 616.8 330.6Q616.3 330.1 615.4 330.1Q615 330.1 614.7 330.1Q614.4 330.2 614.2 330.4Q613.9 330.6 613.8 330.8Q613.7 331.1 613.7 331.4V333.9Q613.7 334.2 613.8 334.4Q613.9 334.7 614.2 334.9Q614.4 335.1 614.7 335.1Q615 335.2 615.4 335.2ZM624.7 334.9H624.6Q624.5 335.2 624.4 335.4Q624.2 335.6 624 335.8Q623.8 335.9 623.5 336.1Q623.1 336.2 622.7 336.2Q621.7 336.2 621 335.5Q620.4 334.8 620.4 333.6V329.3H621.4V333.4Q621.4 334.3 621.8 334.8Q622.2 335.2 623 335.2Q623.3 335.2 623.6 335.2Q623.9 335.1 624.2 334.9Q624.4 334.8 624.5 334.5Q624.7 334.3 624.7 333.9V329.3H625.7V336H624.7ZM628.3 336V329.3H629.3V330.4H629.4Q629.5 330.1 629.6 329.9Q629.8 329.7 630 329.5Q630.2 329.3 630.5 329.2Q630.9 329.1 631.3 329.1Q632.3 329.1 633 329.8Q633.6 330.5 633.6 331.7V336H632.6V331.9Q632.6 331 632.2 330.5Q631.8 330.1 631 330.1Q630.7 330.1 630.4 330.1Q630.1 330.2 629.8 330.4Q629.6 330.5 629.5 330.8Q629.3 331 629.3 331.3V336ZM646.5 332.9Q646 332.9 645.8 332.7Q645.5 332.5 645.5 332.2V331.9Q645.5 331.6 645.8 331.4Q646 331.2 646.5 331.2Q647 331.2 647.2 331.4Q647.5 331.6 647.5 331.9V332.2Q647.5 332.5 647.2 332.7Q647 332.9 646.5 332.9ZM659.5 326.4H660.5V330.4H660.6Q660.7 330.1 660.8 329.9Q661 329.7 661.2 329.5Q661.4 329.3 661.7 329.2Q662.1 329.1 662.5 329.1Q663.5 329.1 664.2 329.8Q664.8 330.5 664.8 331.7V336H663.8V331.9Q663.8 331 663.4 330.5Q663 330.1 662.2 330.1Q661.9 330.1 661.6 330.1Q661.3 330.2 661 330.4Q660.8 330.5 660.7 330.8Q660.5 331 660.5 331.3V336H659.5ZM669.9 336.2Q669.2 336.2 668.6 335.9Q668.1 335.7 667.7 335.2Q667.3 334.7 667.1 334.1Q666.9 333.5 666.9 332.6Q666.9 331.9 667.1 331.2Q667.3 330.6 667.7 330.1Q668.1 329.6 668.6 329.4Q669.2 329.1 669.9 329.1Q670.6 329.1 671.2 329.4Q671.7 329.6 672.1 330.1Q672.5 330.6 672.7 331.2Q672.9 331.9 672.9 332.6Q672.9 333.5 672.7 334.1Q672.5 334.7 672.1 335.2Q671.7 335.7 671.2 335.9Q670.6 336.2 669.9 336.2ZM669.9 335.3Q670.8 335.3 671.3 334.7Q671.8 334.2 671.8 333.1V332.2Q671.8 331.1 671.3 330.6Q670.8 330 669.9 330Q669 330 668.5 330.6Q668 331.1 668 332.2V333.1Q668 334.2 668.5 334.7Q669 335.3 669.9 335.3ZM675.1 336V329.3H676.1V330.4H676.2Q676.3 330.1 676.4 329.9Q676.6 329.7 676.8 329.5Q677 329.3 677.3 329.2Q677.7 329.1 678.1 329.1Q679.1 329.1 679.8 329.8Q680.4 330.5 680.4 331.7V336H679.4V331.9Q679.4 331 679 330.5Q678.6 330.1 677.8 330.1Q677.5 330.1 677.2 330.1Q676.9 330.2 676.6 330.4Q676.4 330.5 676.3 330.8Q676.1 331 676.1 331.3V336ZM685.5 336.2Q684.8 336.2 684.2 335.9Q683.7 335.7 683.3 335.2Q682.9 334.7 682.7 334.1Q682.5 333.5 682.5 332.6Q682.5 331.9 682.7 331.2Q682.9 330.6 683.3 330.1Q683.7 329.6 684.2 329.4Q684.8 329.1 685.5 329.1Q686.2 329.1 686.8 329.4Q687.3 329.6 687.7 330.1Q688.1 330.6 688.3 331.2Q688.5 331.9 688.5 332.6Q688.5 333.5 688.3 334.1Q688.1 334.7 687.7 335.2Q687.3 335.7 686.8 335.9Q686.2 336.2 685.5 336.2ZM685.5 335.3Q686.4 335.3 686.9 334.7Q687.4 334.2 687.4 333.1V332.2Q687.4 331.1 686.9 330.6Q686.4 330 685.5 330Q684.6 330 684.1 330.6Q683.6 331.1 683.6 332.2V333.1Q683.6 334.2 684.1 334.7Q684.6 335.3 685.5 335.3ZM701.1 332.9Q700.6 332.9 700.4 332.7Q700.1 332.5 700.1 332.2V331.9Q700.1 331.6 700.4 331.4Q700.6 331.2 701.1 331.2Q701.6 331.2 701.8 331.4Q702.1 331.6 702.1 331.9V332.2Q702.1 332.5 701.8 332.7Q701.6 332.9 701.1 332.9ZM714 329.3H715.1V330.4H715.1Q715.8 329.1 717.2 329.1Q718.4 329.1 719.1 330.1Q719.8 331 719.8 332.6Q719.8 334.3 719.1 335.2Q718.4 336.2 717.2 336.2Q715.8 336.2 715.1 334.9H715.1V338.6H714ZM716.8 335.2Q717.7 335.2 718.2 334.7Q718.7 334.1 718.7 333.2V332.1Q718.7 331.2 718.2 330.6Q717.7 330.1 716.8 330.1Q716.4 330.1 716.1 330.1Q715.8 330.2 715.6 330.4Q715.3 330.6 715.2 330.8Q715.1 331.1 715.1 331.4V333.9Q715.1 334.2 715.2 334.4Q715.3 334.7 715.6 334.9Q715.8 335.1 716.1 335.1Q716.4 335.2 716.8 335.2ZM724.5 336.2Q723.8 336.2 723.2 335.9Q722.7 335.7 722.3 335.2Q721.9 334.7 721.7 334.1Q721.5 333.5 721.5 332.6Q721.5 331.9 721.7 331.2Q721.9 330.6 722.3 330.1Q722.7 329.6 723.2 329.4Q723.8 329.1 724.5 329.1Q725.2 329.1 725.8 329.4Q726.3 329.6 726.7 330.1Q727.1 330.6 727.3 331.2Q727.5 331.9 727.5 332.6Q727.5 333.5 727.3 334.1Q727.1 334.7 726.7 335.2Q726.3 335.7 725.8 335.9Q725.2 336.2 724.5 336.2ZM724.5 335.3Q725.4 335.3 725.9 334.7Q726.4 334.2 726.4 333.1V332.2Q726.4 331.1 725.9 330.6Q725.4 330 724.5 330Q723.6 330 723.1 330.6Q722.6 331.1 722.6 332.2V333.1Q722.6 334.2 723.1 334.7Q723.6 335.3 724.5 335.3ZM732.4 336.2Q731.3 336.2 730.6 335.8Q729.8 335.4 729.3 334.8L730 334.2Q730.5 334.7 731 335Q731.6 335.3 732.4 335.3Q733.2 335.3 733.7 335Q734.2 334.7 734.2 334.1Q734.2 333.9 734.1 333.7Q734 333.5 733.8 333.4Q733.7 333.3 733.4 333.3Q733.2 333.2 733 333.2L731.9 333Q731.6 332.9 731.2 332.9Q730.8 332.8 730.4 332.6Q730.1 332.4 729.9 332Q729.6 331.7 729.6 331.1Q729.6 330.6 729.8 330.3Q730.1 329.9 730.4 329.6Q730.8 329.4 731.3 329.3Q731.8 329.1 732.4 329.1Q733.3 329.1 733.9 329.4Q734.6 329.7 735.1 330.2L734.4 330.9Q734.3 330.7 734.1 330.6Q733.9 330.4 733.7 330.3Q733.4 330.2 733.1 330.1Q732.8 330 732.3 330Q731.5 330 731.1 330.3Q730.7 330.6 730.7 331.1Q730.7 331.3 730.8 331.5Q730.9 331.7 731 331.8Q731.2 331.9 731.4 332Q731.6 332 731.9 332L732.9 332.2Q733.3 332.3 733.7 332.3Q734.1 332.4 734.4 332.6Q734.8 332.8 735 333.2Q735.2 333.5 735.2 334.1Q735.2 335.1 734.4 335.6Q733.7 336.2 732.4 336.2ZM740.4 336Q739.7 336 739.3 335.6Q738.9 335.1 738.9 334.5V330.2H736.7V329.3H738.4Q738.7 329.3 738.8 329.2Q739 329 739 328.7V326.9H740V329.3H743V330.2H740V335.1H743V336ZM751.3 336.8Q751.3 337.8 750.4 338.3Q749.6 338.8 747.9 338.8Q746.3 338.8 745.6 338.3Q744.9 337.9 744.9 337.1Q744.9 336.5 745.2 336.2Q745.4 335.9 746 335.8V335.6Q745.7 335.5 745.5 335.3Q745.4 335.1 745.4 334.7Q745.4 334.2 745.7 333.9Q746.1 333.7 746.6 333.6V333.5Q746 333.2 745.6 332.7Q745.3 332.2 745.3 331.4Q745.3 330.9 745.4 330.5Q745.6 330.1 746 329.8Q746.3 329.5 746.8 329.3Q747.3 329.1 747.9 329.1Q748.6 329.1 749.2 329.4V329.3Q749.2 328.9 749.4 328.6Q749.6 328.4 750 328.4H751.2V329.3H749.7V329.7Q750.1 330.1 750.3 330.5Q750.5 330.9 750.5 331.4Q750.5 332 750.3 332.4Q750.1 332.8 749.8 333.1Q749.4 333.4 748.9 333.6Q748.4 333.8 747.9 333.8Q747.7 333.8 747.5 333.8Q747.4 333.7 747.2 333.7Q747.1 333.7 746.9 333.8Q746.7 333.9 746.6 334Q746.4 334.1 746.4 334.2Q746.3 334.3 746.3 334.5Q746.3 334.8 746.6 334.9Q746.9 335 747.3 335H748.8Q750.1 335 750.7 335.5Q751.3 335.9 751.3 336.8ZM750.3 336.8Q750.3 336.4 750 336.2Q749.7 335.9 748.9 335.9H746.5Q745.9 336.2 745.9 336.8Q745.9 337.3 746.2 337.6Q746.6 337.9 747.4 337.9H748.4Q749.3 337.9 749.8 337.6Q750.3 337.4 750.3 336.8ZM747.9 333Q748.6 333 749 332.6Q749.4 332.2 749.4 331.6V331.3Q749.4 330.7 749 330.3Q748.6 329.9 747.9 329.9Q747.1 329.9 746.7 330.3Q746.4 330.7 746.4 331.3V331.6Q746.4 332.2 746.7 332.6Q747.1 333 747.9 333ZM752.8 335.1H754.8V330.2H752.8V329.3H755.8V331H755.9Q756.1 330.2 756.7 329.7Q757.2 329.3 758.1 329.3H759.1V330.3H757.8Q756.9 330.3 756.4 330.9Q755.8 331.4 755.8 332.2V335.1H758.4V336H752.8ZM763.6 336.2Q762.9 336.2 762.3 335.9Q761.7 335.7 761.3 335.2Q760.9 334.7 760.7 334.1Q760.5 333.5 760.5 332.7Q760.5 331.9 760.7 331.2Q760.9 330.6 761.3 330.1Q761.7 329.6 762.3 329.4Q762.9 329.1 763.6 329.1Q764.2 329.1 764.8 329.4Q765.3 329.6 765.7 330.1Q766.1 330.5 766.3 331.1Q766.5 331.7 766.5 332.4V332.9H761.6V333.2Q761.6 333.7 761.7 334Q761.8 334.4 762.1 334.7Q762.4 335 762.8 335.1Q763.1 335.3 763.6 335.3Q764.3 335.3 764.8 334.9Q765.3 334.6 765.5 334.1L766.3 334.6Q766 335.3 765.3 335.7Q764.6 336.2 763.6 336.2ZM763.6 330Q763.1 330 762.8 330.1Q762.4 330.3 762.1 330.6Q761.9 330.9 761.7 331.2Q761.6 331.6 761.6 332V332.1H765.4V332Q765.4 331.5 765.3 331.2Q765.1 330.8 764.9 330.5Q764.7 330.3 764.3 330.1Q764 330 763.6 330ZM771.4 336.2Q770.3 336.2 769.6 335.8Q768.8 335.4 768.3 334.8L769 334.2Q769.5 334.7 770 335Q770.6 335.3 771.4 335.3Q772.2 335.3 772.7 335Q773.2 334.7 773.2 334.1Q773.2 333.9 773.1 333.7Q773 333.5 772.8 333.4Q772.7 333.3 772.4 333.3Q772.2 333.2 772 333.2L770.9 333Q770.6 332.9 770.2 332.9Q769.8 332.8 769.4 332.6Q769.1 332.4 768.9 332Q768.6 331.7 768.6 331.1Q768.6 330.6 768.8 330.3Q769.1 329.9 769.4 329.6Q769.8 329.4 770.3 329.3Q770.8 329.1 771.4 329.1Q772.3 329.1 772.9 329.4Q773.6 329.7 774.1 330.2L773.4 330.9Q773.3 330.7 773.1 330.6Q772.9 330.4 772.7 330.3Q772.4 330.2 772.1 330.1Q771.8 330 771.3 330Q770.5 330 770.1 330.3Q769.7 330.6 769.7 331.1Q769.7 331.3 769.8 331.5Q769.9 331.7 770 331.8Q770.2 331.9 770.4 332Q770.6 332 770.9 332L771.9 332.2Q772.3 332.3 772.7 332.3Q773.1 332.4 773.4 332.6Q773.8 332.8 774 333.2Q774.2 333.5 774.2 334.1Q774.2 335.1 773.4 335.6Q772.7 336.2 771.4 336.2ZM784.1 336V335.1H786.7V327.7H786.6L784.3 329.9L783.7 329.2L786.1 326.9H787.8V335.1H790.2V336ZM794.7 336.2Q794 336.2 793.4 335.9Q792.9 335.7 792.5 335.2Q792.1 334.8 791.8 334.1Q791.6 333.5 791.6 332.7Q791.6 331.7 791.9 330.8Q792.2 329.9 792.7 329.1Q793.2 328.4 793.8 327.8Q794.4 327.3 794.9 326.9H796.3Q795.6 327.5 795 328Q794.4 328.5 794 329Q793.5 329.6 793.2 330.2Q792.9 330.8 792.8 331.6L792.8 331.7Q793.1 331.1 793.7 330.7Q794.2 330.4 795.1 330.4Q795.6 330.4 796.1 330.6Q796.6 330.7 797 331.1Q797.4 331.5 797.6 332Q797.8 332.5 797.8 333.2Q797.8 333.8 797.5 334.4Q797.3 334.9 796.9 335.3Q796.5 335.7 796 335.9Q795.4 336.2 794.7 336.2ZM794.7 335.2Q795.6 335.2 796.1 334.7Q796.7 334.2 796.7 333.3V333.2Q796.7 332.3 796.1 331.8Q795.6 331.3 794.7 331.3Q793.8 331.3 793.3 331.8Q792.7 332.3 792.7 333.2V333.3Q792.7 334.2 793.3 334.7Q793.8 335.2 794.7 335.2ZM810.3 332.9Q809.8 332.9 809.6 332.7Q809.3 332.5 809.3 332.2V331.9Q809.3 331.6 809.6 331.4Q809.8 331.2 810.3 331.2Q810.8 331.2 811 331.4Q811.3 331.6 811.3 331.9V332.2Q811.3 332.5 811 332.7Q810.8 332.9 810.3 332.9ZM823.3 336V329.3H824.3V330.4H824.4Q824.5 330.1 824.6 329.9Q824.8 329.7 825 329.5Q825.2 329.3 825.5 329.2Q825.9 329.1 826.3 329.1Q827.3 329.1 828 329.8Q828.6 330.5 828.6 331.7V336H827.6V331.9Q827.6 331 827.2 330.5Q826.8 330.1 826 330.1Q825.7 330.1 825.4 330.1Q825.1 330.2 824.8 330.4Q824.6 330.5 824.5 330.8Q824.3 331 824.3 331.3V336ZM833.8 336.2Q833.1 336.2 832.5 335.9Q831.9 335.7 831.5 335.2Q831.1 334.7 830.9 334.1Q830.7 333.5 830.7 332.7Q830.7 331.9 830.9 331.2Q831.1 330.6 831.5 330.1Q831.9 329.6 832.5 329.4Q833.1 329.1 833.8 329.1Q834.4 329.1 835 329.4Q835.5 329.6 835.9 330.1Q836.3 330.5 836.5 331.1Q836.7 331.7 836.7 332.4V332.9H831.8V333.2Q831.8 333.7 831.9 334Q832 334.4 832.3 334.7Q832.6 335 833 335.1Q833.3 335.3 833.8 335.3Q834.5 335.3 835 334.9Q835.5 334.6 835.7 334.1L836.5 334.6Q836.2 335.3 835.5 335.7Q834.8 336.2 833.8 336.2ZM833.8 330Q833.3 330 833 330.1Q832.6 330.3 832.3 330.6Q832.1 330.9 831.9 331.2Q831.8 331.6 831.8 332V332.1H835.6V332Q835.6 331.5 835.5 331.2Q835.3 330.8 835.1 330.5Q834.9 330.3 834.5 330.1Q834.2 330 833.8 330ZM838.4 336 840.9 332.6 838.5 329.3H839.7L840.7 330.7L841.5 331.8H841.6L842.4 330.7L843.4 329.3H844.6L842.1 332.6L844.6 336H843.4L842.2 334.4L841.5 333.4H841.4L840.7 334.4L839.6 336ZM849.6 336Q848.9 336 848.5 335.6Q848.1 335.1 848.1 334.5V330.2H845.9V329.3H847.6Q847.9 329.3 848 329.2Q848.2 329 848.2 328.7V326.9H849.2V329.3H852.2V330.2H849.2V335.1H852.2V336ZM857.1 336.1Q856.6 336.1 856.4 335.9Q856.1 335.7 856.1 335.3V335.1Q856.1 334.8 856.4 334.5Q856.6 334.3 857.1 334.3Q857.6 334.3 857.8 334.5Q858.1 334.8 858.1 335.1V335.3Q858.1 335.7 857.8 335.9Q857.6 336.1 857.1 336.1ZM862.3 337.7H865.6V330.2H862.2V329.3H866.6V337.1Q866.6 337.7 866.3 338.2Q865.9 338.6 865.1 338.6H862.3ZM866.1 327.8Q865.6 327.8 865.5 327.6Q865.3 327.4 865.3 327.1V326.9Q865.3 326.7 865.5 326.5Q865.6 326.3 866.1 326.3Q866.6 326.3 866.7 326.5Q866.9 326.7 866.9 326.9V327.1Q866.9 327.4 866.7 327.6Q866.6 327.8 866.1 327.8ZM872.8 336.2Q871.7 336.2 871 335.8Q870.2 335.4 869.7 334.8L870.4 334.2Q870.9 334.7 871.4 335Q872 335.3 872.8 335.3Q873.6 335.3 874.1 335Q874.6 334.7 874.6 334.1Q874.6 333.9 874.5 333.7Q874.4 333.5 874.2 333.4Q874.1 333.3 873.8 333.3Q873.6 333.2 873.4 333.2L872.3 333Q872 332.9 871.6 332.9Q871.2 332.8 870.8 332.6Q870.5 332.4 870.3 332Q870 331.7 870 331.1Q870 330.6 870.2 330.3Q870.5 329.9 870.8 329.6Q871.2 329.4 871.7 329.3Q872.2 329.1 872.8 329.1Q873.7 329.1 874.3 329.4Q875 329.7 875.5 330.2L874.8 330.9Q874.7 330.7 874.5 330.6Q874.3 330.4 874.1 330.3Q873.8 330.2 873.5 330.1Q873.2 330 872.7 330Q871.9 330 871.5 330.3Q871.1 330.6 871.1 331.1Q871.1 331.3 871.2 331.5Q871.3 331.7 871.4 331.8Q871.6 331.9 871.8 332Q872 332 872.3 332L873.3 332.2Q873.7 332.3 874.1 332.3Q874.5 332.4 874.8 332.6Q875.2 332.8 875.4 333.2Q875.6 333.5 875.6 334.1Q875.6 335.1 874.8 335.6Q874.1 336.2 872.8 336.2ZM885.5 336V335.1H888.1V327.7H888L885.7 329.9L885.1 329.2L887.5 326.9H889.2V335.1H891.6V336ZM898.7 327.9H894.7L894.4 331.3H894.5Q894.8 330.9 895.2 330.6Q895.7 330.4 896.4 330.4Q897 330.4 897.5 330.5Q898 330.7 898.3 331.1Q898.7 331.5 898.9 332Q899.1 332.5 899.1 333.2Q899.1 333.8 898.9 334.4Q898.7 334.9 898.3 335.3Q897.9 335.7 897.3 335.9Q896.8 336.2 896 336.2Q895.5 336.2 895 336Q894.6 335.9 894.2 335.7Q893.9 335.5 893.6 335.2Q893.4 334.9 893.1 334.6L894 334Q894.2 334.3 894.3 334.5Q894.5 334.7 894.8 334.9Q895 335 895.3 335.1Q895.6 335.2 896.1 335.2Q897 335.2 897.5 334.7Q898 334.2 898 333.3V333.2Q898 332.3 897.5 331.8Q897 331.3 896 331.3Q895.4 331.3 895 331.5Q894.7 331.7 894.4 332L893.4 331.9L893.8 326.9H898.7Z" fill="#8C99A8"/></svg>
